<svg id="Capa_1" data-name="Capa 1" xmlns="http://www.w3.org/2000/svg" viewBox="0 0 134 32"><defs><style>.cls-1{fill:#13002d;}.cls-2{fill:#5900ff;}</style></defs><title>rocketfy</title><path class="cls-1" d="M637.71,378a16.69,16.69,0,0,0,3.62-4,16.09,16.09,0,0,0,2-4.14,12.79,12.79,0,0,0,.61-3.34,8,8,0,0,0-.35-2.51,3.57,3.57,0,0,0-1.22-1.89c-3.23-2.29-7.19,1.21-8.06,2.58a12.92,12.92,0,0,0,.16-2.1,1.44,1.44,0,0,0-.3-1.05c-.18-.18-.42-.49-1.7-.49-2.1,0-2.36.8-2.4,1.76a195.12,195.12,0,0,0,.13,28.92c.17.88.51,1.39,1.44,1.32,1.24-.11,1.22-1.19,1.22-2.2,0-3.7.13-8.1.39-13.12.18-3,.39-5.76.66-8.36a4.07,4.07,0,0,1,.61-1.72,16.41,16.41,0,0,1,2-2.72,3.09,3.09,0,0,1,2-1.15c.83,0,1.22.88,1.22,2.6a14.85,14.85,0,0,1-.65,4.14,13,13,0,0,1-2,4.09,4.8,4.8,0,0,1-2.1,1.67c-.65.26-1,.62-1,1s1.13,2.9,3.49,7.39a50.42,50.42,0,0,0,3.71,6.12,1.21,1.21,0,0,0,1,.61,1.37,1.37,0,0,0,.57-.09.93.93,0,0,0,.65-.92c0-.66-1.22-3.48-3.62-8.36Z" transform="translate(-590.23 -361.07)"/><path class="cls-1" d="M654.54,370.84a5.93,5.93,0,0,0-3.8-1.51H650a9,9,0,0,0-3.43.67,6,6,0,0,0-2.79,3,10.39,10.39,0,0,0-.69,3.75c0,.26,0,.47,0,.73a10.56,10.56,0,0,0,1.21,4.33,5.85,5.85,0,0,0,2.88,2.71,7,7,0,0,0,2.27.41,5.5,5.5,0,0,0,.93,0,7.56,7.56,0,0,0,3.06-1.14,7.14,7.14,0,0,0,2.74-3.76,9.7,9.7,0,0,0,.47-3.07,12.53,12.53,0,0,0-.14-1.83A8.38,8.38,0,0,0,654.54,370.84Zm-.25,7.8a4.43,4.43,0,0,1-1.38,2.4,4.35,4.35,0,0,1-1.66.84,4.08,4.08,0,0,1-.52.07,3.77,3.77,0,0,1-1.28-.15,3.33,3.33,0,0,1-1.71-1.52,6.71,6.71,0,0,1-.84-2.58c0-.16,0-.28-.06-.44a6.68,6.68,0,0,1,.25-2.32,3.63,3.63,0,0,1,1.43-2,4.59,4.59,0,0,1,1.89-.56l.39,0a3.2,3.2,0,0,1,2.18.75,5.26,5.26,0,0,1,1.3,2.51,6.89,6.89,0,0,1,.15,1.11A6.68,6.68,0,0,1,654.29,378.64Z" transform="translate(-590.23 -361.07)"/><path class="cls-1" d="M667.83,378.61c-1.84-.26-1.37,3.61-3.68,3.76-3.23.21-4.29-10.28-.09-10.28,1.89,0,1.37,2.63,3.11,2.43s1.25-5.2-3.61-5.2c-7.46,0-8,14.89-.4,15.61C668.89,385.48,669.4,378.87,667.83,378.61Z" transform="translate(-590.23 -361.07)"/><path class="cls-1" d="M691.53,378.59c-1.5-.21-1.2,4.16-4.62,4a1.93,1.93,0,0,1-1.45-1,4.55,4.55,0,0,1-.73-1.83,7.3,7.3,0,0,1-.15-1.42v-.47a18.21,18.21,0,0,0,2.75-.36,8.29,8.29,0,0,0,2.59-1.05,5.21,5.21,0,0,0,1.3-1.31,3.79,3.79,0,0,0,.57-1.78v-.16a3.44,3.44,0,0,0-1.09-2.72,4.94,4.94,0,0,0-2.7-1.25,8.63,8.63,0,0,0-1.19-.11,5.84,5.84,0,0,0-3.58,1.1,6.62,6.62,0,0,0-2.39,4.5,10.88,10.88,0,0,0-.21,2.3c0,.58,0,1.16.11,1.78a9.75,9.75,0,0,0,1.29,3.77,5.29,5.29,0,0,0,3.07,2.25,4.81,4.81,0,0,0,1.5.21C691.48,385,693.55,378.88,691.53,378.59Zm-2.33-6c1,2.13-4.11,3-4.78,2.77C684.94,371.16,688.58,371.38,689.2,372.63Z" transform="translate(-590.23 -361.07)"/><path class="cls-1" d="M723.72,370.3a1.26,1.26,0,0,0-1.4-.55c-1.79.11-1.51,3-1.51,3.47-.14,2.28-1.88,7.73-4,7.72-2.82,0-1.4-8.66-1.36-9.07.07-.65.4-2.13-1.17-2.09s-1.85,2.09-1.9,2.78c0,.36-1.3,10.28,4.2,10.61a4.2,4.2,0,0,0,4-2.26s.26,9.62-3.75,9.56c-2.64,0-2.41-5.36-4.56-4.24-1.28.37-.53,6.82,5.35,6.82C725.39,393.05,724.54,371.8,723.72,370.3Z" transform="translate(-590.23 -361.07)"/><path class="cls-1" d="M676.17,379.06l-.77-1.12c.62-.58,1.23-1.18,1.82-1.8.24-.25.64-.67,1.17-1.28a5.75,5.75,0,0,0,1.2-1.88.8.8,0,0,0-.36-1,.77.77,0,0,0-1.08,0,33.36,33.36,0,0,1-5,4.45c0-5.1.86-12.45,1-14,0-.42,0-1.29-2.1-1.29-2.29,0-2.4.74-2.44,1.58a156,156,0,0,0,.68,24.35,1.24,1.24,0,0,0,1.51,1.11C673,388,673,387.1,673,386.22s0-4.18.06-6.17l.3-.26a47.51,47.51,0,0,0,3.16,3.55c.24.25.65.66,1.24,1.21a5.82,5.82,0,0,0,1.84,1.26.78.78,0,0,0,1-.34.86.86,0,0,0,0-1.1C679.69,383.48,676.62,379.71,676.17,379.06Z" transform="translate(-590.23 -361.07)"/><path class="cls-1" d="M701.47,369.6c-.09-.43-.47-.47-.74-.47-.8,0-1.51,0-2.23,0,0-.34,0-.68,0-.85,0,0,.5-5.68.49-6.09a.86.86,0,0,0-.29-.74,1.41,1.41,0,0,0-.68-.27,8.14,8.14,0,0,0-.88,0c-.36,0-.68.05-1,.08-.75.15-1.14.53-1.16,1.22-.09,1.45-.16,4.16-.16,6.73a7.23,7.23,0,0,0-2.09.31c-.34.14-.4.57-.36,1.25s.41,1.3.69,1.27,1-.27,1.72-.35a.08.08,0,0,1,.09.08,102.76,102.76,0,0,0,.81,12.56c.09.64.59,1,1.42.92,1-.1,1.09-.9,1.07-1.62,0-1.88.06-8.12.19-11.85a.1.1,0,0,1,.1-.1c.45,0,2.06,0,2.2,0a1.42,1.42,0,0,0,.56-.18A2.59,2.59,0,0,0,701.47,369.6Z" transform="translate(-590.23 -361.07)"/><path class="cls-1" d="M710.5,369.32a12.35,12.35,0,0,0-2.9-.21c0-2.09-.2-5.12,1.84-5.12,1.33,0,2.47,0,2.57-1.15.13-1.46-1.13-1.72-1.86-1.71a6.17,6.17,0,0,0-4.64,1.46c-1.52,1.49-1.31,4.82-1.35,6.52a8.26,8.26,0,0,0-1,.07c-.49.07-.63.46-.63,1.11s.14,1.33.69,1.33h.75a.12.12,0,0,1,.12.12c-.08,4.08-.17,11.29.05,15.14,0,.7.43,1.08,1.19,1.23a7.81,7.81,0,0,0,1,.08,6.41,6.41,0,0,0,.89,0,1.45,1.45,0,0,0,.69-.27.91.91,0,0,0,.3-.75c0-.41-.43-6.9-.43-6.9-.07-.67-.08-5.39-.13-8.43a.18.18,0,0,1,.18-.18,12.5,12.5,0,0,1,2.69.41c.37.1.82-.35.9-1.53A1,1,0,0,0,710.5,369.32Z" transform="translate(-590.23 -361.07)"/><path class="cls-2" d="M595.36,387.68a8.72,8.72,0,0,1,2.69-5.15v-2.08a11.37,11.37,0,0,0-4.27,2.71,12.11,12.11,0,0,0-3.54,9.44.42.42,0,0,0,.43.44,12.11,12.11,0,0,0,9.18-3.7,13.07,13.07,0,0,0,2.62-4.24H600.6A9,9,0,0,1,595.36,387.68Z" transform="translate(-590.23 -361.07)"/><path class="cls-2" d="M621.43,361.88c-.08-.42-.07-.41-.49-.48-2.6-.44-11.44-1.53-19,7.74l-4.29,0a1.06,1.06,0,0,0-.75.57l-2.82,6.64a.44.44,0,0,0,.39.66h4a12.46,12.46,0,0,0-.28,2.22c0,.41-.36,0,2.6,3.06s3.61,2.71,4.16,2.64l1-.13,0,3.89a.45.45,0,0,0,.66.4l6.59-2.85a1,1,0,0,0,.56-.75s0-4.07,0-4.1A20.91,20.91,0,0,0,621.43,361.88ZM609.77,377a4,4,0,1,1,3.93-4A3.95,3.95,0,0,1,609.77,377Z" transform="translate(-590.23 -361.07)"/><ellipse class="cls-2" cx="19.54" cy="12" rx="2.48" ry="2.5"/></svg>